<?xml version="1.0" encoding="utf-8"?>
<!-- Generator: Adobe Illustrator 28.1.0, SVG Export Plug-In . SVG Version: 6.00 Build 0)  -->
<svg version="1.1" id="Layer_1" xmlns="http://www.w3.org/2000/svg" xmlns:xlink="http://www.w3.org/1999/xlink" x="0px" y="0px"
	 viewBox="0 0 128 128" style="enable-background:new 0 0 128 128;" xml:space="preserve">
<style type="text/css">
	.st0{fill:#FFFFFF;}
</style>
<g>
	<path class="st0" d="M75.25,96.29c-0.18,0.07-0.36,0.13-0.53,0.22c-2.02,1.04-4.17,1.62-6.4,1.96c-1.77,0.27-3.53,0.22-5.31,0.07
		c-0.3-0.02-0.61-0.01-0.91,0.03c-4.66,0.64-9.23,0.29-13.67-1.34c-1.64-0.6-3.24-1.29-4.87-1.92c-1.19-0.46-2.39-0.89-3.59-1.3
		c-1.43-0.49-2.9-0.45-4.35-0.11c-1.13,0.27-2.24,0.64-3.35,0.97c-0.58,0.18-1.16,0.39-1.74,0.56c-2.1,0.6-4.21,0.64-6.31,0.03
		c-0.42-0.12-0.85-0.24-1.28-0.6c0.36,0.06,0.62,0.09,0.88,0.14c1.79,0.33,3.53,0.13,5.23-0.5c0.72-0.27,1.43-0.6,2.14-0.92
		c1.03-0.47,2.06-0.96,3.09-1.44c1.1-0.51,2.25-0.75,3.45-0.82c1.51-0.08,2.99,0.08,4.43,0.57c1.1,0.37,2.19,0.77,3.29,1.16
		c0.15,0.05,0.29,0.16,0.52,0.06c-0.52-0.44-0.91-0.99-1.58-1.19c-0.23-0.07-0.43-0.25-0.65-0.37c-1.24-0.71-2.54-1.23-3.95-1.46
		c-1.39-0.23-2.76-0.14-4.1,0.31c-1.31,0.45-2.62,0.89-3.93,1.33c-0.89,0.3-1.8,0.54-2.74,0.67c-1.41,0.21-2.76,0.03-4.03-0.64
		c-0.34-0.18-0.69-0.36-0.97-0.77c0.26,0.07,0.44,0.11,0.62,0.17c1.3,0.44,2.62,0.45,3.92,0.04c0.92-0.29,1.82-0.65,2.73-1
		c1.29-0.5,2.58-1,3.94-1.29c2.97-0.65,5.66-0.06,8.05,1.82c0.27,0.21,0.54,0.43,0.85,0.6c-0.65-0.93-1.32-1.84-1.86-2.83
		c-0.53-0.98-0.99-1.98-1.33-3.04c-0.35-1.08-0.67-2.17-1.01-3.28c-0.44-0.25-0.89-0.51-1.36-0.77c-0.07-0.33-0.13-0.66-0.2-0.98
		c-0.09-0.35-0.18-0.7-0.29-1.04c-0.42-1.21-0.43-1.2-1.58-1.72c-2.82-1.27-5.44-2.85-7.83-4.82c-0.51-0.42-1.08-0.78-1.62-1.16
		c-0.22-0.16-0.43-0.33-0.68-0.51c0.1-0.21,0.18-0.37,0.24-0.51c0.11-0.02,0.17-0.05,0.21-0.03c0.19,0.1,0.39,0.21,0.57,0.33
		c1.52,1.04,3.19,1.77,4.93,2.35c0.1,0.03,0.21,0.04,0.28,0.05c0.07-0.03,0.1-0.03,0.12-0.05c0.02-0.01,0.05-0.03,0.06-0.05
		c3.26-7.58,6.76-15.05,10.19-22.58c-0.43-0.81-1.09-1.38-1.84-1.87c-0.93-0.6-1.92-1.09-2.9-1.61c-0.22-0.12-0.43-0.24-0.63-0.39
		c-0.05-0.03-0.08-0.17-0.05-0.21c0.05-0.08,0.15-0.16,0.24-0.18c0.1-0.01,0.21,0.05,0.31,0.1c0.37,0.18,0.74,0.37,1.16,0.59
		c0.16-0.12,0.35-0.24,0.51-0.38c1.22-1.1,2.32-2.31,3.33-3.6c1.21-1.55,2.39-3.12,3.6-4.68c0.2-0.26,0.29-0.52,0.28-0.84
		c-0.02-0.94-0.02-1.88-0.02-2.83c0-0.22-0.01-0.44,0.01-0.66c0.02-0.19,0.14-0.29,0.32-0.32c0.19-0.03,0.35,0.06,0.41,0.22
		c0.07,0.17,0.09,0.38,0.09,0.57c0.07,1.88,0.14,3.77,0.18,5.65c0.01,0.55,0.14,1.01,0.45,1.47c1.14,1.67,2.25,3.36,3.36,5.05
		c0.2,0.31,0.45,0.54,0.79,0.7c1.34,0.64,2.51,1.52,3.5,2.63c0.09,0.1,0.19,0.19,0.33,0.33c0.09-0.16,0.17-0.26,0.2-0.38
		c0.41-1.61,0.46-3.22,0.21-4.86c-0.31-2.04-0.9-3.99-1.82-5.84c-0.2-0.41-0.48-0.72-0.86-0.98c-1.56-1.06-3.1-2.14-4.65-3.21
		c-0.29-0.2-0.39-0.4-0.27-0.51c0.18-0.18,0.36-0.07,0.53,0.02c0.12,0.07,0.24,0.14,0.35,0.2c1.33-0.38,2.52-1.01,3.62-1.83
		c2.55-1.92,5-3.95,7.26-6.21c1.23-1.24,2.36-2.57,3.33-4.03c0.25-0.39,0.37-0.78,0.37-1.24c-0.01-1.94,0-3.88,0.01-5.82
		c0-0.25,0.02-0.5,0.07-0.74c0.01-0.07,0.16-0.13,0.25-0.15c0.05-0.01,0.17,0.08,0.18,0.14c0.08,0.46,0.16,0.93,0.23,1.39
		c0.03,0.24,0.06,0.48,0.09,0.76c1.51-0.34,2.92-0.08,4.33,0.26c1.1,0.27,2.21,0.5,3.34,0.64c1.87,0.23,3.7,0.09,5.5-0.49
		c0.2-0.06,0.4-0.2,0.63-0.1c-0.17,0.45-0.4,0.72-1.11,1.14c-0.47,0.28-0.98,0.53-1.49,0.71c-0.51,0.19-1.06,0.29-1.65,0.45
		c0.12,0.08,0.21,0.18,0.32,0.2c0.76,0.13,1.53,0.22,2.3,0.35c0.57,0.1,1.14,0.22,1.71,0.34c0.09,0.02,0.16,0.11,0.23,0.17
		c-0.05,0.06-0.06,0.1-0.08,0.1c-1.01,0.3-2.01,0.61-3.03,0.87c-0.48,0.12-0.98,0.17-1.48,0.2c-1.9,0.1-3.76-0.15-5.6-0.59
		c-0.89-0.21-1.8-0.33-2.72-0.27c-0.36,0.02-0.72,0.05-1.07,0.29c-0.08,0.66-0.05,1.32,0.25,1.98c1.14,2.59,2.45,5.09,3.82,7.56
		c1.3,2.35,2.62,4.69,3.92,7.04c0.21,0.37,0.49,0.66,0.8,0.95c2.35,2.18,4.36,4.65,5.92,7.45c1.34,2.41,2.33,4.96,2.82,7.69
		c0.26,1.46,0.26,2.92,0.18,4.39c-0.17,3.19-0.92,6.24-2.22,9.15c-0.06,0.12-0.1,0.26-0.16,0.41c0.09,0.25,0.19,0.5,0.29,0.76
		c0.58,1.61,1.18,3.22,1.74,4.84c0.12,0.36,0.29,0.63,0.6,0.85c0.81,0.58,1.66,1.11,2.57,1.52c0.25,0.11,0.5,0.23,0.76,0.36
		c0.07,0.46-0.12,0.89-0.11,1.32c0.01,0.44,0.03,0.88,0.04,1.33c0.31,0.14,0.59,0.26,0.87,0.39c0.02,0.71-0.54,1.24-0.51,1.97
		c0.08,0.08,0.2,0.19,0.35,0.32c-0.03,0.14-0.07,0.29-0.1,0.45c-0.12,0.74-0.25,1.47-0.34,2.21c-0.09,0.79-0.37,1.5-0.79,2.16
		c-0.64,1.01-1.39,1.94-2.3,2.72c-0.92,0.8-1.87,1.57-2.8,2.35c-0.23,0.19-0.46,0.39-0.64,0.67c0.15-0.04,0.3-0.07,0.45-0.12
		c0.99-0.32,2.01-0.41,3.04-0.32c1.47,0.13,2.91,0.45,4.22,1.14c1.38,0.73,2.8,0.82,4.27,0.39c0.85-0.25,1.69-0.54,2.52-0.82
		c1.06-0.36,2.13-0.6,3.25-0.63c0.11,0,0.22-0.01,0.33,0c0.05,0.01,0.1,0.04,0.18,0.08c-0.06,0.06-0.11,0.13-0.18,0.15
		c-1.33,0.42-2.55,1.07-3.77,1.73c-0.7,0.38-1.43,0.73-2.17,1.04c-1.23,0.52-2.48,0.49-3.74,0.09c-0.61-0.19-1.2-0.44-1.74-0.77
		c-2.29-1.4-4.76-1.7-7.36-1.21c-0.36,0.07-0.68,0.19-0.97,0.43c-1.08,0.86-2.18,1.71-3.27,2.56c-0.03,0.03-0.04,0.1-0.06,0.14
		l0.03-0.03c-0.16-0.01-0.3,0.02-0.37,0.19C75.21,96.32,75.25,96.29,75.25,96.29z M38.19,74.66c0.63-0.57,1.17-1.16,1.7-1.77
		c1.91-2.2,3.38-4.66,4.31-7.43c0.94-2.78,1.12-5.64,0.87-8.54c-0.09-1.05-0.27-2.09-0.62-3.09c-0.07-0.2-0.16-0.38-0.27-0.65
		c-0.26,0.27-0.31,0.54-0.4,0.79c-1.55,4.15-3.11,8.29-4.64,12.45c-0.84,2.29-1.62,4.59-2.41,6.9c-0.1,0.3-0.26,0.61-0.23,0.96
		C37.02,74.57,37.59,74.51,38.19,74.66z M64.58,22.92c-0.22,0.28-0.32,0.4-0.41,0.53c-0.84,1.21-1.77,2.35-2.82,3.38
		c-2.44,2.42-5.01,4.7-7.78,6.75c-0.09,0.07-0.17,0.17-0.34,0.34c1.33-0.24,2.54-0.33,3.76-0.35c1.3-0.03,2.6-0.07,3.91-0.08
		c0.61-0.01,1.22,0.04,1.83,0.06c0.11,0,0.21,0,0.34,0c0.07-0.18,0.15-0.32,0.19-0.48c0.45-1.63,0.89-3.26,1.32-4.89
		c0.06-0.24,0.08-0.49,0.08-0.74c0-1.3-0.01-2.6-0.02-3.91C64.63,23.39,64.61,23.25,64.58,22.92z M65.37,78.59
		c-0.62-0.29-1.19-0.37-1.77-0.41c-1.61-0.13-3.13,0.23-4.63,0.74c-0.28,0.1-0.45,0.28-0.59,0.54c-0.54,0.99-1.11,1.97-1.67,2.96
		c-0.09,0.16-0.18,0.33-0.28,0.52c0.11,0.08,0.19,0.16,0.29,0.21c1.28,0.61,2.66,0.92,4.04,1.23c0.19,0.04,0.39,0.02,0.58,0.01
		c1.19-0.07,2.37-0.14,3.56-0.22c0.16-0.01,0.31-0.07,0.51-0.12C65.4,82.22,65.38,80.43,65.37,78.59z M65.61,23.92
		c-0.01,0.15-0.02,0.31-0.02,0.47c0.05,1.63,0.09,3.27,0.15,4.9c0.01,0.24,0.06,0.5,0.14,0.73c0.49,1.44,1.01,2.87,1.5,4.31
		c0.11,0.32,0.29,0.5,0.6,0.62c0.64,0.26,1.29,0.51,1.89,0.85c0.94,0.53,1.83,1.14,2.75,1.71c0.12,0.07,0.21,0.26,0.45,0.1
		c-2.51-4.53-5.14-9-7.34-13.68C65.73,23.92,65.69,23.92,65.61,23.92z M36.13,74.24c0.08-0.24,0.15-0.42,0.21-0.61
		c0.52-1.55,1.01-3.11,1.57-4.64c1.82-4.94,3.66-9.86,5.49-14.79c0.16-0.44,0.32-0.89,0.49-1.32c0.12-0.29,0.04-0.52-0.2-0.75
		c-0.22,0.25-0.3,0.54-0.42,0.82c-1.78,4.14-3.56,8.29-5.35,12.43c-1.15,2.67-2.31,5.33-3.31,8.06c-0.05,0.15-0.08,0.3-0.12,0.48
		C35.03,74.08,35.53,74.23,36.13,74.24z M34.13,73.86c0.07-0.17,0.13-0.29,0.18-0.42c0.65-1.62,1.26-3.25,1.94-4.86
		c2.3-5.4,4.63-10.78,6.94-16.17c0.08-0.18,0.16-0.35,0.23-0.53c0.11-0.31,0.09-0.36-0.33-0.77c-0.15,0.31-0.3,0.6-0.44,0.9
		c-1.82,3.98-3.65,7.95-5.45,11.93c-1.34,2.98-2.64,5.97-3.96,8.96c-0.08,0.19-0.21,0.38-0.16,0.67
		C33.42,73.66,33.76,73.76,34.13,73.86z M46.95,38.79c-0.18,0.1-0.24,0.11-0.27,0.15c-0.74,0.97-1.48,1.94-2.22,2.91
		c-1.31,1.72-2.71,3.37-4.24,4.9c-0.02,0.02-0.01,0.05-0.01,0.08c0,0.02,0.02,0.04,0.04,0.07c0.77-0.16,1.55-0.35,2.34-0.49
		c0.81-0.14,1.63-0.24,2.48-0.37c0.6-1.58,1.19-3.13,1.78-4.69c0.05-0.13,0.1-0.27,0.1-0.4C46.96,40.27,46.96,39.58,46.95,38.79z
		 M46.72,73.04c-1.94-0.3-3.7,0.19-5.46,0.66c-0.73,0.2-1.47,0.42-2.16,1.04c0.58,0.16,1.08,0.15,1.55,0.23
		c0.49,0.08,0.99,0.11,1.49,0.15c0.52,0.04,1.05,0.07,1.57,0.11c0.5,0.04,0.99,0.09,1.49,0.11c0.49,0.01,0.98,0.1,1.5-0.03
		C46.75,74.55,46.77,73.84,46.72,73.04z M52.68,76.41c-0.27,0.55-0.37,1.15-0.52,1.72c-0.15,0.57-0.43,1.13-0.38,1.78
		c0.68,0.16,1.34,0.33,2,0.48c0.38,0.73,0.82,1.35,1.45,1.83c0.09,0.07,0.22,0.1,0.35,0.16C55.59,80.41,54.15,77.43,52.68,76.41z
		 M70.93,81.33c-1.02-0.5-1.95-1.04-2.93-1.46c-0.05,0.09-0.1,0.13-0.1,0.17c0.03,1.08,0.05,2.16,0.09,3.24
		c0.01,0.12,0.1,0.23,0.15,0.36c0.97-0.26,1.92-0.43,2.79-0.88C70.93,82.28,70.93,81.84,70.93,81.33z M48.13,41.83
		c-0.11,0.75-0.02,3.8,0.1,4.32c1.02,0.25,2.04,0.51,3.05,0.76c0.03,0.01,0.07-0.06,0.13-0.11C50.34,45.18,49.28,43.56,48.13,41.83z
		 M50.15,78.74c0.37-0.67,0.99-2.75,1.09-3.61c-0.81-0.59-1.7-1.06-2.79-1.28c0,0.54-0.07,1.02,0.05,1.55
		c0.44,0.05,0.87,0.1,1.3,0.15c0.21,0.51,0.1,1.02,0.16,1.5C50.03,77.56,50.08,78.08,50.15,78.74z M80.78,68.48
		c-0.24,0.21-0.3,0.53-0.46,0.78c-0.14,0.23-0.13,0.46-0.04,0.71c0.22,0.57,0.45,1.13,0.62,1.71c0.25,0.86,0.93,1.32,1.65,1.94
		c-0.03-0.27-0.02-0.4-0.06-0.52C82,71.39,81.12,69.05,80.78,68.48z M51.38,79.87c0.38-1.32,0.73-2.54,1.07-3.76
		c-0.25-0.3-0.48-0.55-0.88-0.69c-0.42,1.41-0.84,2.78-1.26,4.19C50.65,79.7,50.97,79.77,51.38,79.87z M65.47,17.49
		c-0.06,1.07,0.03,2.84,0.15,3.44c0.28,0.09,0.42-0.12,0.54-0.29c0.66-0.9,0.72-1.89,0.34-2.91c-0.15-0.4-0.27-0.46-0.7-0.38
		C65.7,17.37,65.61,17.43,65.47,17.49z M64.68,33.78c0-1.43,0-2.78-0.01-4.13c0-0.02-0.08-0.03-0.12-0.05
		c-0.43,1.22-1.01,3.38-1.05,3.99C63.87,33.69,64.23,33.83,64.68,33.78z M67.1,34.52c-0.03-0.13-0.05-0.24-0.08-0.34
		c-0.32-0.88-0.63-1.75-0.96-2.63c-0.04-0.11-0.07-0.26-0.28-0.25c0.03,0.66,0.05,1.32,0.08,1.98c0.05,1.07,0.06,1.07,1.08,1.3
		C66.96,34.57,66.98,34.55,67.1,34.52z M79.09,72.41c0.48-0.53,0.98-0.55,1.53-0.55c-0.14-0.65-0.36-1.2-0.64-1.79
		c-0.43,0.54-0.68,1.12-0.97,1.68C78.95,71.87,79.04,72.06,79.09,72.41z M49.95,80.76c0.47,0.28,0.99,0.21,1.46,0.33
		c0.44,0.11,0.76-0.07,1.15-0.37c-0.84-0.25-1.61-0.39-2.42-0.53C50.07,80.4,50.01,80.57,49.95,80.76z M46.94,42.2
		c-0.13,0.21-0.2,0.29-0.24,0.39c-0.43,1.1-0.86,2.2-1.29,3.3c-0.01,0.03,0.03,0.09,0.05,0.14c0.2,0.09,0.32,0,0.38-0.18
		c0.37-1.04,0.73-2.07,1.09-3.11C46.98,42.62,46.94,42.48,46.94,42.2z M67.38,83.68c0.07-0.45,0.04-0.9,0.03-1.35
		c-0.01-0.49-0.01-0.99-0.06-1.48c-0.05-0.44,0.05-0.9-0.19-1.39C67,80.47,67.12,82.95,67.38,83.68z M46.23,46.05
		c0.07-0.05,0.17-0.08,0.19-0.14c0.18-0.49,0.36-0.98,0.52-1.48c0.03-0.1-0.02-0.21-0.04-0.42C46.44,44.95,46.26,45.5,46.23,46.05z
		 M78.74,72.32c-0.55,0.74-0.55,0.74-0.61,1.19C78.82,72.94,78.92,72.76,78.74,72.32z M46.94,45.7c-0.03-0.01-0.07-0.01-0.1-0.01
		c-0.03,0.1-0.06,0.19-0.08,0.28c0,0.02,0.03,0.06,0.05,0.06c0.05-0.01,0.12-0.02,0.12-0.04C46.94,45.89,46.94,45.8,46.94,45.7z"/>
	<path class="st0" d="M75.55,96.16c0.28-0.12,0.56-0.23,0.82-0.37c0.88-0.47,1.77-0.9,2.73-1.22c2.44-0.8,4.85-0.7,7.23,0.24
		c0.82,0.32,1.65,0.65,2.49,0.93c0.74,0.24,1.5,0.4,2.28,0.41c0.73,0.01,1.43-0.13,2.09-0.43c0.88-0.4,1.77-0.79,2.65-1.19
		c2.8-1.24,5.69-1.3,8.63-0.7c0.16,0.03,0.32,0.09,0.47,0.15c0.04,0.02,0.07,0.07,0.11,0.11c-0.3,0-0.6,0.01-0.9,0
		c-1.56-0.06-3.1,0.08-4.62,0.42c-0.87,0.19-1.69,0.51-2.48,0.92c-1.01,0.52-2.03,1.02-3.02,1.56c-1.6,0.88-3.25,0.97-4.99,0.53
		c-1.1-0.28-2.15-0.73-3.2-1.16c-0.64-0.27-1.28-0.54-1.95-0.71c-1.76-0.44-3.52-0.32-5.24,0.23c-0.89,0.29-1.76,0.66-2.63,1.03
		c-1.17,0.5-2.33,1.02-3.59,1.3c-0.7,0.15-1.4,0.34-2.31,0.21c0.45-0.12,0.73-0.2,1.02-0.27c1.42-0.33,2.71-0.95,3.95-1.69
		c0.06-0.04,0.09-0.12,0.14-0.19l-0.03,0.03c0.16,0.01,0.3-0.01,0.37-0.19L75.55,96.16z"/>
	<path class="st0" d="M95.34,100.62c0.02,0.18-0.12,0.23-0.23,0.3c-1.01,0.62-2.11,0.96-3.29,1.05c-1.31,0.1-2.61-0.06-3.86-0.43
		c-1.38-0.41-2.74-0.87-4.11-1.33c-1.23-0.41-2.46-0.85-3.73-1.12c-1.62-0.34-3.18-0.28-4.73,0.37c-0.94,0.39-1.91,0.76-2.88,1.07
		c-0.63,0.2-1.28,0.35-1.94,0.43c-1.01,0.14-1.99-0.04-2.94-0.37c-0.42-0.14-0.83-0.3-1.24-0.47c-1.76-0.73-3.59-0.87-5.47-0.73
		c-0.19,0.01-0.37,0.03-0.57-0.05c0.46-0.1,0.91-0.24,1.37-0.29c1.6-0.18,3.21-0.21,4.78,0.24c0.45,0.13,0.91,0.24,1.36,0.37
		c1.24,0.38,2.47,0.29,3.67-0.17c0.62-0.24,1.22-0.51,1.83-0.78c0.71-0.31,1.42-0.63,2.13-0.93c1.51-0.65,3.07-0.68,4.65-0.39
		c1.56,0.28,3.03,0.88,4.48,1.49c1.23,0.51,2.45,1.04,3.69,1.51c0.98,0.38,1.99,0.66,3.05,0.77c1.21,0.13,2.38-0.01,3.52-0.42
		c0.15-0.06,0.32-0.07,0.48-0.1L95.34,100.62z"/>
	<path class="st0" d="M65.76,100.91c-0.61-0.04-1.11-0.09-1.6-0.11c-1.03-0.03-2.05,0.11-3.03,0.41c-2.05,0.62-4.13,0.7-6.25,0.47
		c-1.86-0.2-3.64-0.69-5.35-1.43c-1.58-0.68-3.22-1.17-4.91-1.5c-2.11-0.41-4.19-0.28-6.25,0.29c-0.21,0.06-0.42,0.12-0.64,0.18
		c-0.02,0.01-0.05-0.01-0.15-0.03c0.13-0.09,0.21-0.18,0.31-0.23c2.37-1.18,4.87-1.59,7.5-1.25c1.9,0.24,3.75,0.71,5.56,1.34
		c2.29,0.8,4.65,1.28,7.07,1.31c0.99,0.01,1.99-0.06,2.98-0.16c1.43-0.16,2.82-0.05,4.18,0.42
		C65.36,100.68,65.51,100.79,65.76,100.91z"/>
	<path class="st0" d="M80.33,96.72c0.71-0.25,1.28-0.22,1.86-0.17c0.94,0.09,1.86,0.29,2.77,0.53c1.28,0.34,2.56,0.69,3.86,0.96
		c1.98,0.41,3.96,0.34,5.92-0.13c1-0.24,1.93-0.67,2.81-1.2c0.23-0.14,0.46-0.28,0.69-0.41c0.16,0.18,0.02,0.28-0.05,0.38
		c-1.17,1.48-2.69,2.45-4.51,2.93c-1.83,0.49-3.66,0.49-5.48-0.1c-1.24-0.4-2.43-0.91-3.61-1.45c-1.01-0.46-2.02-0.9-3.11-1.12
		C81.16,96.86,80.83,96.81,80.33,96.72z"/>
	<path class="st0" d="M74.66,106.96c-0.05,0.11-0.06,0.17-0.09,0.19c-0.91,0.73-1.8,1.47-2.73,2.17c-0.73,0.56-1.55,0.94-2.46,1.15
		c-0.81,0.18-1.6,0.14-2.37-0.14c-0.54-0.2-1.07-0.43-1.6-0.68c-0.48-0.22-0.94-0.47-1.41-0.7c-1.22-0.61-2.49-0.69-3.8-0.4
		c-0.81,0.18-1.61,0.41-2.41,0.63c-1,0.27-2,0.42-3.04,0.25c-0.08-0.01-0.15-0.04-0.33-0.1c0.21-0.03,0.32-0.07,0.42-0.06
		c0.85,0.03,1.64-0.19,2.42-0.48c0.52-0.2,1.03-0.4,1.55-0.6c0.72-0.28,1.46-0.5,2.23-0.64c1.15-0.21,2.26-0.09,3.33,0.38
		c0.66,0.29,1.32,0.58,1.95,0.93c1.68,0.92,3.33,0.86,4.98-0.07c0.84-0.48,1.68-0.97,2.52-1.45
		C74.07,107.21,74.32,107.05,74.66,106.96z"/>
	<path class="st0" d="M87.72,102.48c-0.42,0.36-0.94,0.44-1.46,0.49c-0.81,0.08-1.6-0.05-2.37-0.28c-0.82-0.24-1.63-0.53-2.44-0.81
		c-0.99-0.34-1.99-0.67-3.03-0.83c-0.81-0.12-1.59-0.09-2.37,0.17c-0.89,0.3-1.79,0.56-2.7,0.8c-0.61,0.16-1.24,0.28-1.87,0.38
		c-1.07,0.16-2.09-0.08-3.07-0.49c-0.13-0.06-0.33-0.12-0.22-0.36l-0.01-0.01c0.48,0.33,1.04,0.34,1.59,0.4
		c0.87,0.09,1.71-0.08,2.53-0.36c0.63-0.22,1.24-0.47,1.86-0.71c0.62-0.23,1.25-0.45,1.87-0.68c1.02-0.38,2.07-0.34,3.11-0.14
		c0.87,0.17,1.71,0.46,2.52,0.82c0.61,0.27,1.21,0.56,1.82,0.82c0.51,0.21,1.03,0.41,1.55,0.59c0.69,0.24,1.4,0.32,2.13,0.2
		c0.18-0.03,0.38,0.01,0.57,0.01L87.72,102.48z"/>
	<path class="st0" d="M56.44,106.3c0.11-0.01,0.22-0.04,0.33-0.04c0.74,0.02,1.42-0.19,2.06-0.53c0.51-0.28,1.01-0.58,1.53-0.84
		c0.77-0.4,1.59-0.66,2.47-0.59c0.46,0.04,0.94,0.11,1.38,0.26c0.79,0.26,1.55,0.57,2.33,0.87c0.49,0.19,0.97,0.41,1.46,0.59
		c1.19,0.43,1.59,0.45,2.74,0.14c0.05,0.18-0.11,0.23-0.2,0.29c-0.57,0.39-1.21,0.53-1.89,0.46c-0.66-0.06-1.31-0.18-1.95-0.39
		c-0.81-0.27-1.62-0.55-2.45-0.79c-1.78-0.53-1.99-0.64-4.1,0.13c-0.65,0.24-1.3,0.46-1.96,0.66c-0.55,0.16-1.1,0.08-1.63-0.11
		c-0.04-0.01-0.07-0.08-0.1-0.12L56.44,106.3z"/>
	<path class="st0" d="M47.34,100.7c0.36-0.09,0.6,0.08,0.85,0.16c1.85,0.56,3.69,1.15,5.55,1.69c1.01,0.29,2.04,0.52,3.09,0.59
		c0.94,0.07,1.88,0.06,2.78-0.3c0.07-0.03,0.16,0,0.27,0c-0.19,0.33-0.5,0.46-0.79,0.62c-0.98,0.53-2.05,0.64-3.14,0.59
		c-1.34-0.06-2.62-0.38-3.86-0.89c-1.43-0.59-2.81-1.29-4.16-2.06C47.75,100.99,47.57,100.86,47.34,100.7z"/>
	<path class="st0" d="M32.65,96.83c0.21-0.18,0.27-0.24,0.34-0.28c1.51-0.83,3.1-1.46,4.77-1.89c0.84-0.22,1.65-0.16,2.46,0.08
		c0.61,0.18,1.2,0.42,1.78,0.68c0.96,0.43,1.9,0.9,2.85,1.36c0.04,0.02,0.06,0.07,0.13,0.15c-0.34,0.07-0.67,0.05-0.98-0.03
		c-0.83-0.21-1.66-0.44-2.48-0.66c-0.67-0.18-1.33-0.38-2.01-0.52c-0.65-0.14-1.32-0.15-1.98,0c-1.46,0.33-2.91,0.67-4.36,1.01
		C33.05,96.75,32.94,96.77,32.65,96.83z"/>
	<path class="st0" d="M69.53,103.65c0.18-0.01,0.36-0.03,0.54-0.03c0.9,0.02,1.76-0.15,2.6-0.45c0.73-0.26,1.46-0.51,2.2-0.75
		c1.77-0.58,3.5-0.42,5.16,0.38c0.5,0.24,0.95,0.56,1.43,0.85c0.08,0.05,0.14,0.14,0.31,0.33c-0.4-0.12-0.66-0.19-0.92-0.27
		c-1.09-0.33-2.2-0.55-3.34-0.58c-0.78-0.02-1.55,0.08-2.3,0.28c-1.07,0.28-2.15,0.53-3.25,0.63
		C71.11,104.13,70.32,103.97,69.53,103.65z"/>
	<path class="st0" d="M47.59,106.38c0.74-0.83,1.65-1.3,2.73-1.43c0.81-0.1,1.6,0.01,2.33,0.4c0.15,0.08,0.3,0.14,0.44,0.23
		c0.93,0.55,1.87,1.07,2.92,1.37c0.04,0.01,0.06,0.07,0.11,0.14c-0.79,0.2-1.55,0.14-2.3-0.09c-0.55-0.17-1.08-0.41-1.62-0.63
		c-0.36-0.14-0.71-0.31-1.08-0.42c-0.82-0.25-1.64-0.13-2.45,0.1C48.31,106.16,47.95,106.27,47.59,106.38z"/>
	<path class="st0" d="M71.24,105.18c1.01,0.04,1.93-0.26,2.85-0.56c0.63-0.2,1.26-0.4,1.9-0.57c0.62-0.17,1.26-0.17,1.89-0.09
		c0.74,0.09,1.36,0.41,1.85,1.15c-0.21-0.05-0.34-0.07-0.45-0.12c-0.61-0.25-1.24-0.26-1.87-0.12c-1.03,0.22-2.04,0.48-3.08,0.65
		c-0.65,0.11-1.32,0.1-1.98,0.1C71.95,105.61,71.56,105.5,71.24,105.18z"/>
	<path class="st0" d="M61.66,102.38c1.3-0.66,2.49-0.78,3.71-0.3c0.6,0.23,1.13,0.58,1.63,0.98c0.77,0.62,1.47,1.32,2.43,1.77
		c-0.55,0.14-0.61,0.18-0.98,0.05c-0.49-0.17-0.99-0.35-1.45-0.59c-0.54-0.28-1.05-0.61-1.55-0.96c-0.97-0.68-2.03-0.98-3.2-0.88
		c-0.11,0.01-0.22,0.01-0.33,0.01C61.89,102.45,61.86,102.44,61.66,102.38z"/>
	<path class="st0" d="M42.89,102.99c0.42-0.18,0.77-0.03,1.11,0.15c0.32,0.17,0.63,0.35,0.94,0.52c0.63,0.35,1.26,0.36,1.91,0.06
		c0.48-0.22,0.95-0.44,1.44-0.64c0.5-0.2,1.01-0.28,1.54-0.12c0.07,0.02,0.14,0.08,0.2,0.12c-0.03,0.06-0.05,0.14-0.08,0.14
		c-0.55,0.06-0.99,0.33-1.41,0.65c-0.28,0.22-0.56,0.45-0.86,0.64c-1.15,0.71-2.26,0.63-3.28-0.25c-0.15-0.12-0.29-0.26-0.42-0.4
		C43.67,103.52,43.35,103.19,42.89,102.99z"/>
	<path class="st0" d="M81.78,107.37c-0.35,0.31-0.76,0.36-1.17,0.4c-0.3,0.03-0.61,0.02-0.91,0.02c-0.28,0-0.55,0-0.83-0.04
		c-1.44-0.18-2.67,0.25-3.71,1.25c-0.08,0.08-0.17,0.14-0.26,0.2c-0.02,0.02-0.05,0.02-0.14,0.04c0.03-0.13,0.05-0.23,0.08-0.32
		c0.24-0.54,0.59-1,1.03-1.38c0.91-0.8,1.97-1.12,3.15-0.87C79.95,106.86,80.85,107.13,81.78,107.37z"/>
	<path class="st0" d="M39.5,101.79c0.81-0.82,1.77-1.33,2.9-1.45c0.62-0.07,1.21,0.11,1.76,0.39c0.29,0.15,0.57,0.33,0.84,0.53
		c0.44,0.33,0.88,0.67,1.54,0.74c-0.41,0.26-0.76,0.24-1.11,0.15c-0.27-0.07-0.53-0.15-0.78-0.26c-1.05-0.46-2.14-0.49-3.26-0.35
		c-0.52,0.07-1.04,0.16-1.56,0.23C39.71,101.78,39.6,101.78,39.5,101.79z"/>
	<path class="st0" d="M60.14,113.14c2.02-2.31,4.95-2.09,6.43-0.1c-0.18,0.13-0.36,0.04-0.53,0c-0.73-0.15-1.45-0.33-2.18-0.46
		c-1.03-0.17-2.03-0.02-3.01,0.33C60.67,112.99,60.49,113.03,60.14,113.14z"/>
	<path class="st0" d="M54.76,111.86c1.15-0.31,2.03-0.76,2.88-1.27c0.67-0.4,1.4-0.66,2.19-0.7c0.27-0.01,0.55,0.01,0.82,0.06
		c0.22,0.04,0.42,0.14,0.5,0.4c-0.31,0.07-0.63,0.11-0.93,0.21c-0.31,0.11-0.6,0.28-0.9,0.43c-0.91,0.47-1.84,0.9-2.87,1.04
		C55.94,112.1,55.42,112.12,54.76,111.86z"/>
	<path class="st0" d="M67.75,111.82c1.63-0.02,3.18-0.18,4.65-0.85c0.09,0.33-0.05,0.54-0.2,0.73c-0.52,0.7-1.26,0.98-2.09,0.99
		c-0.81,0.01-1.59-0.2-2.28-0.65C67.8,112.03,67.8,111.96,67.75,111.82z"/>
	<path class="st0" d="M87.74,102.5c0.02-0.05,0.04-0.11,0.07-0.16c0,0,0.04,0.02,0.07,0.02c-0.05,0.04-0.11,0.07-0.16,0.11
		C87.72,102.48,87.74,102.5,87.74,102.5z"/>
	<path class="st0" d="M68.19,101.55c-0.04,0-0.08,0-0.12,0c0.02,0.01,0.04,0.03,0.05,0.03c0.02-0.01,0.04-0.03,0.06-0.04
		C68.19,101.54,68.19,101.55,68.19,101.55z"/>
	<path class="st0" d="M95.36,100.64c0.05-0.04,0.1-0.08,0.14-0.12c0.01,0.02,0.03,0.04,0.04,0.06c-0.07,0.01-0.13,0.03-0.2,0.04
		L95.36,100.64z"/>
	<path class="st0" d="M56.45,106.28c-0.05,0-0.1,0-0.14-0.01c-0.02,0-0.04-0.03-0.06-0.04c0.04-0.02,0.09-0.06,0.11-0.04
		c0.03,0.02,0.05,0.07,0.07,0.11C56.44,106.3,56.45,106.28,56.45,106.28z"/>
	<path class="st0" d="M46.23,46.05"/>
	<path class="st0" d="M46.42,45.91"/>
	<path class="st0" d="M46.94,44.43"/>
	<path class="st0" d="M46.9,44.01"/>
</g>
</svg>
