<?xml version="1.0" encoding="utf-8"?>
<svg xmlns="http://www.w3.org/2000/svg" viewBox="0 0 128 128">
<style>
    rect {
        fill: black;
    }
    @media (prefers-color-scheme: dark) {
        rect {
            fill: white;
        }
    }
</style>
<g>
	<path d="M77.69,103.32c-0.22,0.09-0.44,0.16-0.65,0.27c-2.45,1.27-5.08,1.97-7.8,2.38c-2.15,0.32-4.3,0.26-6.46,0.09
		c-0.37-0.03-0.74-0.01-1.1,0.04c-5.68,0.78-11.25,0.35-16.65-1.63c-1.99-0.73-3.94-1.58-5.93-2.34c-1.45-0.56-2.91-1.08-4.37-1.59
		c-1.75-0.6-3.53-0.55-5.29-0.13c-1.37,0.33-2.72,0.77-4.08,1.18c-0.71,0.21-1.41,0.47-2.12,0.68c-2.56,0.74-5.12,0.78-7.69,0.04
		c-0.51-0.15-1.04-0.29-1.56-0.73c0.44,0.07,0.76,0.11,1.07,0.17c2.18,0.4,4.3,0.16,6.37-0.61c0.88-0.33,1.74-0.73,2.6-1.12
		c1.26-0.57,2.51-1.16,3.76-1.75c1.33-0.63,2.75-0.92,4.21-0.99c1.84-0.1,3.64,0.1,5.39,0.69c1.34,0.45,2.67,0.94,4,1.42
		c0.18,0.07,0.35,0.2,0.63,0.08c-0.63-0.54-1.1-1.2-1.93-1.45c-0.28-0.09-0.52-0.3-0.79-0.45c-1.5-0.86-3.09-1.5-4.81-1.78
		c-1.7-0.28-3.36-0.18-4.99,0.38c-1.6,0.54-3.19,1.09-4.79,1.62c-1.09,0.36-2.2,0.65-3.34,0.82c-1.72,0.25-3.37,0.04-4.91-0.77
		c-0.41-0.22-0.84-0.44-1.18-0.94c0.31,0.09,0.54,0.13,0.75,0.21c1.59,0.54,3.19,0.55,4.78,0.05c1.12-0.35,2.22-0.8,3.32-1.22
		c1.57-0.61,3.14-1.21,4.8-1.58c3.62-0.79,6.89-0.08,9.81,2.22c0.33,0.26,0.65,0.52,1.03,0.73c-0.8-1.13-1.61-2.24-2.26-3.45
		c-0.65-1.19-1.2-2.42-1.62-3.7c-0.42-1.31-0.81-2.64-1.23-3.99c-0.53-0.3-1.09-0.62-1.65-0.94c-0.08-0.41-0.15-0.8-0.25-1.19
		c-0.11-0.42-0.21-0.85-0.36-1.26c-0.51-1.47-0.52-1.46-1.93-2.1c-3.44-1.54-6.63-3.47-9.54-5.87c-0.62-0.51-1.31-0.95-1.97-1.42
		c-0.27-0.19-0.53-0.4-0.83-0.62c0.12-0.26,0.21-0.46,0.29-0.62c0.13-0.02,0.21-0.06,0.26-0.03c0.24,0.12,0.47,0.25,0.7,0.4
		c1.85,1.27,3.89,2.16,6.01,2.86c0.12,0.04,0.26,0.04,0.34,0.06c0.08-0.03,0.12-0.04,0.14-0.06c0.03-0.02,0.07-0.04,0.08-0.06
		c3.97-9.23,8.24-18.33,12.41-27.49c-0.52-0.99-1.32-1.69-2.24-2.28c-1.14-0.73-2.34-1.33-3.53-1.96c-0.27-0.14-0.53-0.3-0.77-0.47
		c-0.06-0.04-0.09-0.21-0.06-0.26c0.07-0.1,0.19-0.2,0.3-0.21c0.12-0.01,0.26,0.06,0.38,0.12c0.45,0.22,0.9,0.46,1.41,0.72
		c0.2-0.15,0.42-0.29,0.62-0.46c1.48-1.34,2.82-2.81,4.05-4.38c1.48-1.88,2.91-3.8,4.38-5.7c0.24-0.31,0.35-0.63,0.34-1.02
		c-0.02-1.15-0.02-2.29-0.03-3.44c0-0.27-0.01-0.54,0.01-0.81c0.02-0.23,0.17-0.36,0.39-0.39c0.23-0.03,0.42,0.08,0.5,0.26
		c0.08,0.21,0.11,0.46,0.11,0.69c0.08,2.29,0.18,4.59,0.22,6.88c0.01,0.67,0.17,1.23,0.55,1.79c1.39,2.04,2.74,4.1,4.09,6.15
		c0.25,0.38,0.54,0.66,0.96,0.86c1.63,0.78,3.05,1.85,4.26,3.2c0.11,0.12,0.23,0.23,0.41,0.41c0.11-0.19,0.21-0.32,0.24-0.46
		c0.5-1.96,0.56-3.93,0.26-5.92c-0.38-2.49-1.09-4.86-2.21-7.12c-0.25-0.5-0.59-0.88-1.05-1.19c-1.9-1.29-3.78-2.6-5.66-3.91
		c-0.35-0.24-0.47-0.48-0.33-0.62c0.22-0.21,0.43-0.09,0.64,0.03c0.15,0.08,0.29,0.16,0.43,0.24c1.62-0.47,3.07-1.23,4.4-2.23
		c3.11-2.34,6.09-4.81,8.84-7.57c1.5-1.51,2.88-3.13,4.05-4.91c0.31-0.47,0.45-0.95,0.45-1.51c-0.02-2.36,0-4.72,0.01-7.09
		c0-0.3,0.03-0.6,0.09-0.9c0.02-0.08,0.19-0.16,0.31-0.18c0.06-0.01,0.2,0.09,0.22,0.16c0.1,0.56,0.19,1.13,0.27,1.69
		c0.04,0.29,0.07,0.58,0.11,0.92c1.84-0.41,3.56-0.1,5.27,0.32c1.34,0.33,2.69,0.61,4.07,0.79c2.28,0.28,4.51,0.11,6.7-0.59
		c0.24-0.08,0.49-0.24,0.77-0.12c-0.21,0.55-0.49,0.88-1.35,1.39c-0.58,0.34-1.19,0.64-1.82,0.87c-0.63,0.23-1.3,0.35-2.01,0.54
		c0.15,0.09,0.26,0.22,0.39,0.24c0.93,0.15,1.87,0.27,2.8,0.43c0.7,0.12,1.39,0.26,2.08,0.41c0.11,0.02,0.19,0.14,0.28,0.21
		c-0.06,0.08-0.07,0.12-0.09,0.12c-1.23,0.36-2.45,0.75-3.69,1.06c-0.58,0.15-1.2,0.21-1.8,0.24c-2.31,0.12-4.58-0.19-6.82-0.72
		c-1.09-0.26-2.19-0.41-3.31-0.33c-0.44,0.03-0.87,0.06-1.3,0.36c-0.09,0.81-0.05,1.6,0.3,2.41c1.39,3.15,2.98,6.2,4.65,9.21
		c1.59,2.86,3.19,5.71,4.78,8.58c0.25,0.46,0.6,0.81,0.97,1.15c2.87,2.66,5.31,5.66,7.21,9.08c1.64,2.94,2.84,6.04,3.43,9.36
		c0.32,1.77,0.32,3.56,0.22,5.35c-0.2,3.88-1.12,7.59-2.7,11.14c-0.07,0.15-0.12,0.31-0.19,0.5c0.11,0.3,0.23,0.61,0.35,0.93
		c0.71,1.96,1.43,3.93,2.12,5.9c0.15,0.43,0.36,0.77,0.73,1.04c0.99,0.71,2.02,1.35,3.13,1.85c0.3,0.14,0.61,0.28,0.92,0.44
		c0.09,0.56-0.14,1.08-0.14,1.61c0.01,0.54,0.03,1.07,0.05,1.62c0.38,0.17,0.71,0.32,1.06,0.47c0.03,0.87-0.65,1.51-0.63,2.4
		c0.1,0.09,0.24,0.23,0.42,0.39c-0.04,0.17-0.09,0.36-0.12,0.55c-0.14,0.9-0.31,1.8-0.41,2.7c-0.11,0.96-0.45,1.82-0.96,2.64
		c-0.78,1.23-1.69,2.36-2.8,3.32c-1.12,0.97-2.27,1.91-3.41,2.86c-0.28,0.23-0.56,0.47-0.78,0.81c0.18-0.05,0.37-0.09,0.55-0.15
		c1.21-0.38,2.45-0.5,3.7-0.39c1.8,0.15,3.55,0.54,5.14,1.39c1.69,0.89,3.41,1,5.2,0.47c1.03-0.31,2.06-0.66,3.07-1
		c1.29-0.43,2.6-0.73,3.96-0.77c0.14,0,0.27-0.01,0.4,0c0.06,0.01,0.12,0.05,0.22,0.1c-0.08,0.07-0.14,0.15-0.21,0.18
		c-1.62,0.51-3.11,1.3-4.59,2.1c-0.86,0.46-1.74,0.89-2.64,1.27c-1.5,0.63-3.02,0.59-4.56,0.11c-0.74-0.23-1.46-0.53-2.12-0.94
		c-2.79-1.71-5.8-2.07-8.97-1.47c-0.43,0.08-0.83,0.24-1.19,0.52c-1.31,1.05-2.65,2.08-3.98,3.12c-0.04,0.03-0.05,0.12-0.07,0.18
		l0.04-0.04c-0.2-0.01-0.37,0.02-0.45,0.23C77.66,103.36,77.69,103.32,77.69,103.32z M32.57,76.98c0.77-0.69,1.43-1.41,2.07-2.15
		c2.32-2.68,4.11-5.67,5.25-9.04c1.14-3.39,1.37-6.86,1.06-10.4c-0.11-1.28-0.33-2.54-0.76-3.76c-0.08-0.24-0.2-0.47-0.33-0.79
		c-0.31,0.32-0.38,0.66-0.49,0.96c-1.89,5.05-3.79,10.1-5.65,15.17c-1.02,2.79-1.98,5.59-2.94,8.4c-0.13,0.37-0.32,0.74-0.28,1.16
		C31.14,76.87,31.83,76.79,32.57,76.98z M64.71,13.97c-0.26,0.34-0.39,0.49-0.5,0.64c-1.02,1.48-2.16,2.86-3.43,4.12
		c-2.98,2.95-6.1,5.73-9.48,8.22c-0.11,0.08-0.2,0.2-0.41,0.41c1.62-0.29,3.09-0.4,4.58-0.43c1.58-0.04,3.17-0.08,4.76-0.1
		c0.74-0.01,1.48,0.05,2.22,0.08c0.13,0,0.26,0,0.42,0c0.09-0.21,0.18-0.39,0.23-0.58c0.54-1.98,1.08-3.97,1.61-5.96
		c0.08-0.29,0.09-0.6,0.09-0.9c0-1.59-0.02-3.17-0.03-4.76C64.77,14.54,64.75,14.38,64.71,13.97z M65.66,81.77
		c-0.76-0.35-1.45-0.45-2.16-0.5c-1.96-0.16-3.81,0.28-5.64,0.91c-0.34,0.12-0.54,0.34-0.72,0.65c-0.66,1.21-1.36,2.4-2.04,3.6
		c-0.11,0.2-0.22,0.41-0.34,0.63c0.14,0.1,0.23,0.2,0.35,0.25c1.56,0.74,3.24,1.12,4.92,1.5c0.23,0.05,0.47,0.03,0.7,0.01
		c1.45-0.08,2.89-0.17,4.34-0.26c0.19-0.01,0.37-0.09,0.62-0.15C65.7,86.19,65.69,84.01,65.66,81.77z M65.96,15.18
		c-0.01,0.19-0.03,0.38-0.02,0.57c0.06,1.99,0.11,3.98,0.18,5.97c0.01,0.3,0.07,0.61,0.17,0.89c0.6,1.75,1.22,3.5,1.82,5.25
		c0.13,0.39,0.36,0.6,0.74,0.76c0.78,0.31,1.57,0.62,2.3,1.04c1.14,0.65,2.23,1.39,3.35,2.08c0.14,0.09,0.26,0.31,0.55,0.12
		c-3.06-5.52-6.26-10.95-8.94-16.66C66.11,15.19,66.06,15.19,65.96,15.18z M30.05,76.47c0.1-0.3,0.18-0.52,0.25-0.74
		c0.64-1.88,1.22-3.79,1.91-5.65c2.21-6.01,4.46-12.01,6.69-18.01c0.2-0.54,0.39-1.08,0.6-1.61c0.14-0.36,0.05-0.64-0.24-0.92
		c-0.27,0.3-0.37,0.66-0.51,0.99c-2.17,5.05-4.34,10.1-6.52,15.14c-1.41,3.25-2.81,6.5-4.04,9.82c-0.07,0.18-0.09,0.37-0.14,0.58
		C28.72,76.28,29.32,76.46,30.05,76.47z M27.62,76c0.09-0.21,0.16-0.35,0.22-0.51c0.79-1.97,1.53-3.96,2.37-5.91
		c2.8-6.57,5.63-13.13,8.46-19.7c0.09-0.22,0.2-0.43,0.28-0.65c0.14-0.38,0.11-0.44-0.4-0.93c-0.18,0.38-0.37,0.73-0.53,1.09
		c-2.22,4.84-4.45,9.68-6.64,14.53c-1.64,3.63-3.22,7.27-4.82,10.91c-0.1,0.23-0.26,0.46-0.2,0.81C26.76,75.77,27.17,75.88,27.62,76
		z M43.24,33.29c-0.22,0.12-0.3,0.13-0.33,0.18c-0.9,1.18-1.8,2.36-2.7,3.54c-1.59,2.1-3.3,4.1-5.16,5.97
		c-0.02,0.02-0.02,0.07-0.01,0.1c0,0.02,0.02,0.04,0.05,0.09c0.94-0.2,1.89-0.42,2.85-0.6c0.99-0.18,1.99-0.3,3.02-0.45
		c0.73-1.93,1.45-3.82,2.17-5.71c0.06-0.16,0.12-0.32,0.12-0.49C43.25,35.1,43.24,34.26,43.24,33.29z M42.95,75.01
		c-2.36-0.36-4.5,0.23-6.65,0.8c-0.89,0.24-1.79,0.51-2.63,1.26c0.71,0.19,1.31,0.19,1.89,0.28c0.6,0.1,1.2,0.13,1.81,0.18
		c0.64,0.05,1.28,0.09,1.91,0.14c0.6,0.04,1.21,0.11,1.81,0.13c0.59,0.02,1.19,0.12,1.82-0.03C43,76.85,43.02,75.99,42.95,75.01z
		 M50.21,79.12c-0.33,0.67-0.45,1.4-0.64,2.1c-0.19,0.7-0.52,1.38-0.47,2.17c0.83,0.2,1.64,0.4,2.43,0.59
		c0.46,0.89,1,1.65,1.77,2.23c0.11,0.09,0.27,0.13,0.43,0.2C53.76,83.98,52,80.36,50.21,79.12z M72.44,85.11
		c-1.24-0.61-2.37-1.26-3.57-1.78c-0.07,0.11-0.13,0.16-0.13,0.21c0.03,1.31,0.06,2.63,0.11,3.94c0.01,0.14,0.12,0.28,0.18,0.44
		c1.19-0.31,2.34-0.53,3.4-1.07C72.44,86.26,72.44,85.73,72.44,85.11z M44.68,37c-0.14,0.91-0.03,4.63,0.12,5.26
		c1.25,0.31,2.48,0.62,3.72,0.92c0.03,0.01,0.08-0.07,0.16-0.14C47.37,41.08,46.07,39.11,44.68,37z M47.14,81.95
		c0.45-0.81,1.2-3.35,1.33-4.4c-0.99-0.72-2.07-1.29-3.4-1.56c0,0.66-0.09,1.25,0.06,1.88c0.54,0.06,1.06,0.12,1.58,0.18
		c0.26,0.62,0.12,1.24,0.2,1.83C46.99,80.51,47.05,81.15,47.14,81.95z M84.43,69.46c-0.3,0.26-0.37,0.64-0.56,0.95
		c-0.17,0.28-0.16,0.56-0.05,0.87c0.26,0.69,0.54,1.38,0.76,2.09c0.31,1.04,1.14,1.6,2.01,2.37c-0.03-0.32-0.02-0.48-0.07-0.63
		C85.92,73,84.85,70.14,84.43,69.46z M48.63,83.33c0.46-1.61,0.88-3.09,1.31-4.58c-0.31-0.36-0.59-0.67-1.08-0.84
		c-0.52,1.72-1.02,3.38-1.53,5.1C47.75,83.12,48.13,83.21,48.63,83.33z M65.79,7.36c-0.07,1.3,0.03,3.46,0.19,4.19
		c0.34,0.11,0.51-0.15,0.66-0.35c0.8-1.1,0.88-2.3,0.41-3.55c-0.18-0.49-0.33-0.56-0.85-0.46C66.07,7.22,65.96,7.29,65.79,7.36z
		 M64.83,27.2c0-1.74,0-3.39-0.01-5.04c0-0.02-0.09-0.04-0.14-0.05c-0.53,1.49-1.22,4.11-1.27,4.85
		C63.84,27.09,64.28,27.26,64.83,27.2z M67.77,28.09c-0.04-0.16-0.06-0.3-0.1-0.42c-0.39-1.07-0.77-2.14-1.17-3.2
		c-0.05-0.14-0.08-0.32-0.34-0.31c0.03,0.81,0.05,1.61,0.09,2.41c0.06,1.3,0.07,1.3,1.31,1.58C67.6,28.16,67.63,28.14,67.77,28.09z
		 M82.38,74.24c0.58-0.65,1.19-0.67,1.86-0.67c-0.16-0.79-0.44-1.46-0.78-2.18c-0.52,0.66-0.83,1.37-1.18,2.05
		C82.21,73.58,82.32,73.81,82.38,74.24z M46.89,84.41c0.57,0.34,1.2,0.26,1.78,0.4c0.53,0.14,0.93-0.09,1.4-0.45
		c-1.02-0.31-1.96-0.48-2.94-0.64C47.04,83.97,46.96,84.18,46.89,84.41z M43.23,37.45c-0.16,0.26-0.24,0.36-0.29,0.47
		c-0.53,1.34-1.05,2.68-1.57,4.02c-0.02,0.04,0.04,0.11,0.06,0.17c0.24,0.11,0.38,0,0.46-0.22c0.45-1.26,0.89-2.53,1.33-3.79
		C43.27,37.97,43.23,37.79,43.23,37.45z M68.11,87.96c0.09-0.54,0.04-1.1,0.03-1.65c-0.01-0.6-0.01-1.21-0.07-1.8
		c-0.05-0.53,0.06-1.1-0.24-1.69C67.66,84.06,67.8,87.08,68.11,87.96z M42.36,42.13c0.09-0.07,0.2-0.1,0.23-0.17
		c0.22-0.6,0.44-1.2,0.64-1.8c0.04-0.12-0.02-0.26-0.04-0.51C42.61,40.8,42.39,41.47,42.36,42.13z M81.95,74.13
		c-0.68,0.91-0.68,0.91-0.74,1.45C82.05,74.88,82.17,74.67,81.95,74.13z M43.22,41.72c-0.04-0.01-0.08-0.01-0.12-0.02
		c-0.03,0.12-0.07,0.23-0.09,0.35c0,0.02,0.04,0.07,0.06,0.07c0.05-0.01,0.15-0.03,0.15-0.05C43.23,41.95,43.22,41.84,43.22,41.72z"
		/>
	<path d="M78.07,103.17c0.34-0.15,0.68-0.28,1-0.46c1.07-0.57,2.16-1.1,3.32-1.48c2.97-0.98,5.9-0.85,8.81,0.29
		c1,0.39,2.01,0.79,3.03,1.13c0.9,0.3,1.82,0.49,2.77,0.5c0.89,0.02,1.74-0.16,2.55-0.52c1.07-0.49,2.15-0.97,3.23-1.45
		c3.4-1.51,6.92-1.59,10.51-0.85c0.2,0.04,0.39,0.11,0.58,0.18c0.05,0.02,0.09,0.08,0.14,0.14c-0.37,0-0.74,0.01-1.1,0
		c-1.9-0.07-3.77,0.09-5.63,0.51c-1.06,0.24-2.06,0.63-3.03,1.12c-1.23,0.63-2.47,1.24-3.68,1.91c-1.94,1.07-3.96,1.19-6.08,0.64
		c-1.34-0.35-2.61-0.88-3.89-1.41c-0.78-0.32-1.56-0.66-2.37-0.86c-2.15-0.53-4.29-0.39-6.38,0.28c-1.09,0.35-2.14,0.81-3.2,1.26
		c-1.43,0.61-2.84,1.25-4.37,1.58c-0.85,0.19-1.7,0.42-2.82,0.26c0.55-0.15,0.89-0.25,1.24-0.32c1.73-0.4,3.3-1.16,4.82-2.05
		c0.07-0.04,0.11-0.15,0.17-0.23l-0.04,0.04c0.19,0.01,0.37-0.01,0.45-0.23L78.07,103.17z"/>
	<path d="M102.17,108.59c0.02,0.21-0.15,0.28-0.28,0.37c-1.23,0.75-2.57,1.17-4.01,1.27c-1.6,0.12-3.18-0.07-4.7-0.52
		c-1.68-0.5-3.34-1.06-5-1.62c-1.5-0.5-2.99-1.04-4.55-1.37c-1.97-0.42-3.88-0.34-5.75,0.45c-1.15,0.48-2.32,0.92-3.51,1.31
		C73.6,108.72,72.8,108.9,72,109c-1.22,0.16-2.42-0.05-3.59-0.45c-0.51-0.18-1.02-0.37-1.51-0.57c-2.14-0.88-4.37-1.06-6.66-0.89
		c-0.23,0.02-0.45,0.03-0.69-0.07c0.55-0.12,1.1-0.3,1.67-0.36c1.95-0.21,3.91-0.25,5.82,0.29c0.55,0.16,1.11,0.29,1.66,0.45
		c1.51,0.46,3,0.35,4.47-0.2c0.76-0.29,1.49-0.63,2.23-0.95c0.87-0.38,1.73-0.76,2.59-1.14c1.83-0.79,3.74-0.83,5.66-0.48
		c1.91,0.34,3.68,1.08,5.46,1.81c1.5,0.62,2.98,1.26,4.49,1.84c1.2,0.46,2.43,0.81,3.72,0.94c1.47,0.15,2.89-0.01,4.28-0.51
		c0.19-0.07,0.39-0.08,0.58-0.13L102.17,108.59z"/>
	<path d="M66.15,108.95c-0.74-0.05-1.35-0.11-1.95-0.13c-1.26-0.04-2.49,0.14-3.7,0.5c-2.5,0.75-5.04,0.85-7.61,0.57
		c-2.26-0.25-4.43-0.84-6.52-1.74c-1.92-0.83-3.92-1.42-5.98-1.83c-2.57-0.5-5.1-0.35-7.61,0.35c-0.26,0.07-0.52,0.15-0.78,0.22
		c-0.03,0.01-0.06-0.01-0.18-0.04c0.16-0.11,0.26-0.22,0.38-0.28c2.89-1.43,5.93-1.93,9.14-1.52c2.32,0.29,4.56,0.86,6.77,1.63
		c2.79,0.98,5.66,1.56,8.61,1.6c1.21,0.02,2.43-0.07,3.63-0.2c1.74-0.19,3.43-0.05,5.09,0.51C65.65,108.68,65.84,108.8,66.15,108.95
		z"/>
	<path d="M83.89,103.84c0.86-0.3,1.56-0.27,2.26-0.21c1.14,0.11,2.26,0.35,3.37,0.64c1.56,0.41,3.12,0.85,4.7,1.17
		c2.41,0.5,4.82,0.42,7.21-0.16c1.22-0.3,2.35-0.81,3.42-1.46c0.28-0.17,0.56-0.34,0.84-0.5c0.2,0.22,0.02,0.35-0.07,0.46
		c-1.43,1.81-3.28,2.98-5.49,3.57c-2.23,0.6-4.45,0.6-6.67-0.12c-1.51-0.49-2.96-1.11-4.4-1.77c-1.23-0.56-2.46-1.09-3.79-1.36
		C84.89,104.02,84.5,103.96,83.89,103.84z"/>
	<path d="M76.99,116.32c-0.07,0.14-0.08,0.2-0.11,0.23c-1.1,0.89-2.19,1.79-3.32,2.64c-0.89,0.68-1.89,1.15-3,1.4
		c-0.99,0.22-1.95,0.17-2.88-0.16c-0.66-0.24-1.31-0.53-1.95-0.82c-0.58-0.27-1.15-0.57-1.72-0.85c-1.48-0.75-3.04-0.84-4.63-0.48
		c-0.98,0.22-1.96,0.5-2.93,0.77c-1.21,0.33-2.44,0.51-3.7,0.31c-0.09-0.01-0.18-0.05-0.4-0.12c0.26-0.04,0.38-0.08,0.51-0.08
		c1.03,0.03,2-0.23,2.95-0.59c0.63-0.24,1.25-0.49,1.88-0.73c0.88-0.34,1.78-0.61,2.71-0.78c1.4-0.25,2.75-0.11,4.05,0.47
		c0.8,0.36,1.6,0.71,2.37,1.13c2.05,1.12,4.06,1.05,6.06-0.09c1.03-0.58,2.04-1.18,3.07-1.76
		C76.26,116.62,76.57,116.42,76.99,116.32z"/>
	<path d="M92.89,110.86c-0.51,0.43-1.14,0.54-1.78,0.6c-0.99,0.09-1.95-0.06-2.89-0.34c-1-0.3-1.98-0.64-2.97-0.98
		c-1.21-0.42-2.42-0.82-3.69-1.01c-0.98-0.15-1.93-0.11-2.89,0.21c-1.08,0.36-2.18,0.68-3.29,0.97c-0.75,0.2-1.51,0.35-2.27,0.46
		c-1.3,0.19-2.54-0.09-3.74-0.59c-0.16-0.07-0.41-0.15-0.27-0.43l-0.01-0.02c0.58,0.41,1.27,0.42,1.93,0.49
		c1.06,0.11,2.09-0.1,3.08-0.44c0.76-0.26,1.51-0.58,2.27-0.86c0.76-0.28,1.52-0.54,2.28-0.83c1.25-0.47,2.52-0.41,3.79-0.16
		c1.06,0.21,2.08,0.56,3.07,1c0.74,0.33,1.47,0.68,2.21,1c0.62,0.26,1.25,0.49,1.89,0.72c0.84,0.29,1.7,0.39,2.59,0.25
		c0.22-0.04,0.46,0.01,0.69,0.01L92.89,110.86z"/>
	<path d="M54.79,115.51c0.13-0.02,0.27-0.05,0.4-0.05c0.9,0.03,1.73-0.23,2.51-0.65c0.62-0.34,1.23-0.7,1.86-1.02
		c0.94-0.48,1.94-0.8,3.01-0.72c0.57,0.04,1.14,0.14,1.68,0.31c0.96,0.31,1.89,0.7,2.83,1.06c0.6,0.23,1.18,0.5,1.78,0.72
		c1.44,0.53,1.94,0.54,3.34,0.17c0.06,0.22-0.13,0.28-0.24,0.36c-0.7,0.48-1.48,0.64-2.31,0.56c-0.81-0.08-1.6-0.22-2.37-0.47
		c-0.99-0.32-1.98-0.67-2.98-0.97c-2.17-0.64-2.43-0.78-4.99,0.16c-0.79,0.29-1.59,0.56-2.39,0.8c-0.67,0.2-1.34,0.09-1.98-0.13
		c-0.05-0.02-0.08-0.1-0.12-0.15L54.79,115.51z"/>
	<path d="M43.71,108.7c0.44-0.11,0.73,0.1,1.03,0.2c2.25,0.68,4.49,1.4,6.75,2.06c1.23,0.35,2.48,0.63,3.76,0.72
		c1.15,0.08,2.29,0.07,3.38-0.37c0.08-0.03,0.19,0,0.33,0c-0.23,0.4-0.61,0.57-0.96,0.75c-1.2,0.64-2.49,0.79-3.82,0.72
		c-1.63-0.08-3.19-0.46-4.7-1.09c-1.74-0.72-3.43-1.57-5.06-2.5C44.21,109.05,44,108.89,43.71,108.7z"/>
	<path d="M25.82,103.98c0.26-0.21,0.32-0.29,0.41-0.34c1.84-1.01,3.78-1.77,5.81-2.3c1.02-0.26,2.02-0.19,2.99,0.1
		c0.74,0.22,1.46,0.52,2.17,0.83c1.17,0.53,2.31,1.1,3.47,1.65c0.05,0.02,0.08,0.09,0.15,0.19c-0.42,0.08-0.81,0.05-1.19-0.04
		c-1.01-0.26-2.02-0.54-3.02-0.81c-0.81-0.22-1.62-0.46-2.44-0.64c-0.8-0.17-1.61-0.18-2.41,0c-1.77,0.4-3.55,0.82-5.32,1.22
		C26.31,103.89,26.18,103.91,25.82,103.98z"/>
	<path d="M70.73,112.29c0.22-0.01,0.43-0.04,0.65-0.04c1.09,0.02,2.14-0.19,3.17-0.55c0.89-0.31,1.78-0.62,2.68-0.91
		c2.16-0.71,4.26-0.51,6.28,0.47c0.6,0.29,1.16,0.68,1.74,1.03c0.1,0.06,0.17,0.18,0.38,0.4c-0.49-0.14-0.8-0.23-1.12-0.32
		c-1.33-0.4-2.68-0.67-4.07-0.7c-0.95-0.02-1.88,0.1-2.8,0.34c-1.3,0.34-2.62,0.64-3.96,0.77
		C72.66,112.87,71.69,112.68,70.73,112.29z"/>
	<path d="M44.01,115.62c0.91-1.01,2.02-1.58,3.33-1.74c0.99-0.12,1.95,0.01,2.84,0.49c0.18,0.09,0.37,0.18,0.54,0.28
		c1.13,0.67,2.28,1.3,3.55,1.67c0.04,0.01,0.07,0.08,0.14,0.16c-0.96,0.24-1.89,0.17-2.8-0.11c-0.67-0.21-1.32-0.5-1.97-0.76
		c-0.44-0.17-0.87-0.37-1.31-0.51c-1-0.31-2-0.16-2.99,0.12C44.89,115.34,44.45,115.48,44.01,115.62z"/>
	<path d="M72.82,114.15c1.23,0.05,2.35-0.32,3.48-0.68c0.77-0.24,1.54-0.48,2.32-0.69c0.76-0.2,1.54-0.21,2.31-0.11
		c0.9,0.11,1.66,0.5,2.25,1.39c-0.26-0.07-0.41-0.09-0.55-0.14c-0.74-0.3-1.51-0.32-2.28-0.15c-1.25,0.26-2.49,0.58-3.75,0.79
		c-0.79,0.13-1.61,0.12-2.41,0.12C73.69,114.68,73.2,114.54,72.82,114.15z"/>
	<path d="M61.15,110.74c1.59-0.81,3.03-0.95,4.52-0.37c0.73,0.28,1.38,0.7,1.98,1.19c0.93,0.75,1.79,1.61,2.96,2.16
		c-0.67,0.17-0.74,0.21-1.2,0.06c-0.6-0.2-1.2-0.43-1.76-0.72c-0.65-0.34-1.28-0.75-1.88-1.17c-1.18-0.82-2.47-1.19-3.9-1.07
		c-0.13,0.01-0.27,0.01-0.4,0.01C61.43,110.83,61.4,110.81,61.15,110.74z"/>
	<path d="M38.3,111.48c0.51-0.21,0.94-0.04,1.36,0.18c0.38,0.21,0.77,0.42,1.15,0.64c0.76,0.43,1.53,0.43,2.32,0.07
		c0.58-0.27,1.16-0.53,1.75-0.77c0.61-0.25,1.23-0.34,1.87-0.14c0.09,0.03,0.16,0.1,0.24,0.15c-0.04,0.07-0.06,0.16-0.09,0.17
		c-0.66,0.07-1.2,0.4-1.71,0.8c-0.35,0.27-0.68,0.55-1.05,0.78c-1.4,0.87-2.75,0.76-4-0.3c-0.18-0.15-0.35-0.32-0.51-0.49
		C39.24,112.13,38.85,111.73,38.3,111.48z"/>
	<path d="M85.66,116.81c-0.43,0.37-0.93,0.44-1.42,0.49c-0.37,0.04-0.74,0.02-1.11,0.02c-0.34,0-0.68,0-1.01-0.04
		c-1.75-0.22-3.25,0.3-4.52,1.52c-0.09,0.09-0.21,0.17-0.31,0.25c-0.02,0.02-0.06,0.02-0.16,0.05c0.04-0.16,0.05-0.28,0.1-0.39
		c0.3-0.65,0.72-1.21,1.26-1.69c1.11-0.97,2.4-1.36,3.84-1.06C83.43,116.2,84.51,116.52,85.66,116.81z"/>
	<path d="M34.16,110.02c0.99-1,2.15-1.62,3.53-1.77c0.76-0.08,1.47,0.13,2.14,0.48c0.36,0.18,0.7,0.41,1.02,0.65
		c0.54,0.4,1.07,0.81,1.87,0.9c-0.5,0.32-0.93,0.29-1.35,0.18c-0.32-0.09-0.65-0.18-0.96-0.32c-1.28-0.57-2.61-0.6-3.97-0.42
		c-0.64,0.08-1.27,0.19-1.9,0.28C34.42,110.01,34.29,110.01,34.16,110.02z"/>
	<path d="M59.3,123.85c2.46-2.82,6.03-2.55,7.83-0.12c-0.22,0.16-0.44,0.05-0.65,0c-0.89-0.19-1.77-0.41-2.66-0.56
		c-1.25-0.21-2.48-0.02-3.67,0.4C59.95,123.66,59.73,123.72,59.3,123.85z"/>
	<path d="M52.75,122.28c1.4-0.38,2.47-0.93,3.51-1.55c0.82-0.49,1.71-0.8,2.67-0.85c0.33-0.02,0.67,0.02,1,0.07
		c0.27,0.05,0.51,0.17,0.61,0.48c-0.38,0.08-0.77,0.13-1.13,0.26c-0.38,0.13-0.73,0.34-1.09,0.52c-1.11,0.58-2.24,1.1-3.49,1.27
		C54.19,122.57,53.56,122.61,52.75,122.28z"/>
	<path d="M68.57,122.24c1.99-0.02,3.88-0.22,5.67-1.03c0.11,0.4-0.06,0.66-0.24,0.89c-0.63,0.85-1.54,1.19-2.55,1.21
		c-0.99,0.01-1.93-0.24-2.78-0.79C68.62,122.49,68.62,122.41,68.57,122.24z"/>
	<path d="M92.91,110.89c0.03-0.06,0.05-0.13,0.09-0.19c0,0,0.05,0.02,0.08,0.03c-0.07,0.04-0.13,0.09-0.19,0.14
		C92.89,110.86,92.91,110.89,92.91,110.89z"/>
	<path d="M69.11,109.74c-0.05,0-0.1,0-0.15,0c0.02,0.01,0.05,0.04,0.06,0.04c0.03-0.01,0.05-0.03,0.08-0.05
		C69.1,109.72,69.11,109.74,69.11,109.74z"/>
	<path d="M102.19,108.62c0.06-0.05,0.12-0.1,0.18-0.15c0.02,0.03,0.03,0.05,0.05,0.08c-0.08,0.02-0.16,0.03-0.24,0.05L102.19,108.62
		z"/>
	<path d="M54.81,115.49c-0.06,0-0.12,0-0.17-0.01c-0.03,0-0.05-0.03-0.07-0.05c0.05-0.02,0.11-0.07,0.14-0.05
		c0.04,0.02,0.06,0.09,0.08,0.14C54.79,115.51,54.81,115.49,54.81,115.49z"/>
	<path class="st0" d="M42.36,42.13"/>
	<path class="st0" d="M42.59,41.96"/>
	<path class="st0" d="M43.22,40.16"/>
	<path class="st0" d="M43.18,39.66"/>
</g>
</svg>
